#!OML:ASF H:\Dans Jumps\Project 1\Capture day 1\Session 1\subject.ASF
:FULLY-SPECIFIED
:DEGREES
161
root 0.563618 17.375 -14.523 6.60172 -0.357235 -1.72874
lowerback 1.54678 -0.645734 0.484213
upperback 4.25908 -0.918663 1.88735
thorax 3.53609 -0.478356 1.65717
lowerneck -11.5215 0.481616 -1.77751
upperneck 29.9084 1.13672 -0.0983893
head 11.6419 0.294959 0.420943
rclavicle 4.87022e-015 -1.59028e-015
rhumerus -25.0655 -14.9949 -79.7264
rradius 25.9491
rwrist 28.939
rhand -18.8172 -26.4023
rfingers 7.12502
rthumb 7.48162 -56.25
lclavicle 4.87022e-015 -1.59028e-015
lhumerus -20.2274 -0.853759 88.013
lradius 19.1939
lwrist 6.73228
lhand -26.3126 -4.26913
lfingers 7.12502
lthumb 0.243818 25.7105
rfemur -18.3758 -2.07487 20.1776
rtibia 29.0861
rfoot -15.7637 -3.82578
rtoes 8.26004
lfemur -17.878 8.30893 -18.3408
ltibia 27.7928
lfoot -13.5867 6.60673
ltoes -2.57345
162
root 0.564447 17.3729 -14.5276 6.59865 -0.365423 -1.73347
lowerback 1.58227 -0.643442 0.490906
upperback 4.26935 -0.915253 1.88746
thorax 3.52654 -0.47646 1.65395
lowerneck -11.5474 0.486901 -1.77215
upperneck 29.8988 1.14352 -0.0983145
head 11.6434 0.298647 0.421024
rclavicle -8.54774e-015 -2.10712e-014
rhumerus -25.0611 -15.0011 -79.7086
rradius 25.9807
rwrist 28.9258
rhand -18.8343 -26.3777
rfingers 7.12502
rthumb 7.46507 -56.226
lclavicle -8.54774e-015 -2.10712e-014
lhumerus -20.2219 -0.871363 88.0032
lradius 19.2144
lwrist 6.77027
lhand -26.3127 -4.25412
lfingers 7.12502
lthumb 0.243686 25.7255
rfemur -18.4309 -2.06168 20.1807
rtibia 29.1598
rfoot -15.7717 -3.83153
rtoes 8.2606
lfemur -17.9412 8.30493 -18.3419
ltibia 27.8862
lfoot -13.5939 6.63218
ltoes -2.58463
163
root 0.565288 17.3706 -14.5328 6.60224 -0.374453 -1.73408
lowerback 1.62058 -0.642057 0.492814
upperback 4.27672 -0.91289 1.88675
thorax 3.51248 -0.475216 1.65258
lowerneck -11.5731 0.494336 -1.75726
upperneck 29.8888 1.15393 -0.107764
head 11.6447 0.303839 0.416392
rclavicle -1.35174e-014 -3.18055e-015
rhumerus -25.0631 -15.0071 -79.6866
rradius 26.0121
rwrist 28.9066
rhand -18.8479 -26.3538
rfingers 7.12502
rthumb 7.45197 -56.2026
lclavicle -1.35174e-014 -3.18055e-015
lhumerus -20.2259 -0.887761 87.991
lradius 19.2398
lwrist 6.81424
lhand -26.3149 -4.23622
lfingers 7.12502
lthumb 0.24161 25.7434
rfemur -18.5004 -2.04911 20.1796
rtibia 29.2414
rfoot -15.7796 -3.83762
rtoes 8.25753
lfemur -18.018 8.29889 -18.349
ltibia 27.9854
lfoot -13.5978 6.6595
ltoes -2.59408
164
root 0.566225 17.3681 -14.5386 6.61099 -0.385353 -1.73345
lowerback 1.6618 -0.641375 0.493694
upperback 4.28279 -0.911374 1.88573
thorax 3.49546 -0.474414 1.65149
lowerneck -11.5956 0.502306 -1.73502
upperneck 29.8724 1.16617 -0.12724
head 11.6431 0.309493 0.406972
rclavicle 0 -2.10712e-014
rhumerus -25.0665 -15.0201 -79.6595
rradius 26.0363
rwrist 28.8872
rhand -18.8562 -26.3346
rfingers 7.12502
rthumb 7.44398 -56.1836
lclavicle 0 -2.10712e-014
lhumerus -20.239 -0.903376 87.9763
lradius 19.2722
lwrist 6.86478
lhand -26.3197 -4.2141
lfingers 7.12502
lthumb 0.237013 25.7655
rfemur -18.5825 -2.03737 20.177
rtibia 29.3311
rfoot -15.7879 -3.84278
rtoes 8.24787
lfemur -18.1065 8.29095 -18.359
ltibia 28.0918
lfoot -13.5996 6.68873
ltoes -2.59612
165
root 0.567153 17.3654 -14.5452 6.62662 -0.399312 -1.73135
lowerback 1.70643 -0.641359 0.489707
upperback 4.28616 -0.91066 1.88641
thorax 3.47383 -0.474192 1.65491
lowerneck -11.6151 0.511229 -1.71224
upperneck 29.8522 1.18139 -0.153054
head 11.6394 0.315804 0.395475
rclavicle -6.4605e-015 7.15625e-015
rhumerus -25.0734 -15.0378 -79.6244
rradius 26.0541
rwrist 28.8742
rhand -18.8626 -26.3154
rfingers 7.12502
rthumb 7.43777 -56.1646
lclavicle -6.4605e-015 7.15625e-015
lhumerus -20.2649 -0.916444 87.9609
lradius 19.3105
lwrist 6.92331
lhand -26.3324 -4.2154
lfingers 7.12502
lthumb 0.224731 25.7642
rfemur -18.6805 -2.0225 20.1727
rtibia 29.4299
rfoot -15.7964 -3.84764
rtoes 8.2314
lfemur -18.2103 8.28396 -18.3721
ltibia 28.2063
lfoot -13.6004 6.71872
ltoes -2.59623
166
root 0.568013 17.3624 -14.5526 6.65063 -0.413215 -1.72915
lowerback 1.75476 -0.642881 0.482367
upperback 4.28487 -0.911892 1.88928
thorax 3.44543 -0.475068 1.6625
lowerneck -11.6299 0.519668 -1.69583
upperneck 29.8286 1.19752 -0.179672
head 11.6334 0.321749 0.384871
rclavicle -1.98785e-016 -2.14687e-014
rhumerus -25.0882 -15.0556 -79.5826
rradius 26.0688
rwrist 28.8599
rhand -18.8701 -26.3059
rfingers 7.12502
rthumb 7.43052 -56.1554
lclavicle -1.98785e-016 -2.14687e-014
lhumerus -20.3073 -0.920344 87.943
lradius 19.3574
lwrist 6.9864
lhand -26.3378 -4.23065
lfingers 7.12502
lthumb 0.219451 25.749
rfemur -18.7949 -2.00593 20.1688
rtibia 29.5368
rfoot -15.8045 -3.85336
rtoes 8.21246
lfemur -18.3317 8.27876 -18.3869
ltibia 28.3296
lfoot -13.6021 6.74519
ltoes -2.59295
